<svg height="512" viewBox="0 0 60 60" width="512" xmlns="http://www.w3.org/2000/svg"><g id="Page-1" fill="none" fill-rule="evenodd"><g id="046---Keyword-Rankings" fill="rgb(0,0,0)" fill-rule="nonzero"><path id="Shape" d="m56 0h-52c-2.209139 0-4 1.790861-4 4v52c0 2.209139 1.790861 4 4 4h52c2.209139 0 4-1.790861 4-4v-52c0-2.209139-1.790861-4-4-4zm-52 2h52c1.1045695 0 2 .8954305 2 2v8h-56v-8c0-1.1045695.8954305-2 2-2zm52 56h-52c-1.1045695 0-2-.8954305-2-2v-42h56v42c0 1.1045695-.8954305 2-2 2z"/><path id="Shape" d="m7 10c1.65685425 0 3-1.34314575 3-3s-1.34314575-3-3-3-3 1.34314575-3 3 1.34314575 3 3 3zm0-4c.55228475 0 1 .44771525 1 1s-.44771525 1-1 1-1-.44771525-1-1 .44771525-1 1-1z"/><path id="Shape" d="m15 10c1.6568542 0 3-1.34314575 3-3s-1.3431458-3-3-3-3 1.34314575-3 3 1.3431458 3 3 3zm0-4c.5522847 0 1 .44771525 1 1s-.4477153 1-1 1-1-.44771525-1-1 .4477153-1 1-1z"/><path id="Shape" d="m23 10c1.6568542 0 3-1.34314575 3-3s-1.3431458-3-3-3-3 1.34314575-3 3 1.3431458 3 3 3zm0-4c.5522847 0 1 .44771525 1 1s-.4477153 1-1 1-1-.44771525-1-1 .4477153-1 1-1z"/><path id="Shape" d="m43 10h10c1.6568542-.00000002 3-1.34314577 3-3s-1.3431458-2.99999998-3-3h-10c-1.6568542.00000002-3 1.34314577-3 3s1.3431458 2.99999998 3 3zm0-4h10c.5522847 0 1 .44771525 1 1s-.4477153 1-1 1h-10c-.5522847 0-1-.44771525-1-1s.4477153-1 1-1z"/><path id="Shape" d="m20 30c2.700319-.0036873 5.1577219-1.560237 6.315-4h6.685v2c0 1.1045695.8954305 2 2 2h6c1.1045695 0 2-.8954305 2-2v-2h1c.840435-.0033763 1.6411573-.3580886 2.2083502-.9782777.5671929-.6201892.8491598-1.4493283.7776498-2.2867223-.1743473-1.5725786-1.513925-2.7559588-3.096-2.735h-17.575c-1.4869356-3.1347271-5.0457204-4.707268-8.3646171-3.6961219-3.3188967 1.0111462-5.3963373 4.3008384-4.8828452 7.7321381s3.4629567 5.9687183 6.9324623 5.9639838zm23.89-8c.5452634-.0159438 1.0169704.3768596 1.1.916.0203905.2769985-.0741897.5501694-.2614936.7552577s-.450799.3239918-.7285064.3287423h-1c-1.1045695 0-2 .8954305-2 2v2h-2v-1c0-.5522847-.4477153-1-1-1s-1 .4477153-1 1v1h-2v-2c0-1.1045695-.8954305-2-2-2h-6.08c.1066667-.6624.1066667-1.3376 0-2zm-23.89-4c2.7614237 0 5 2.2385763 5 5s-2.2385763 5-5 5-5-2.2385763-5-5c.0033061-2.7600532 2.2399468-4.9966939 5-5z"/><path id="Shape" d="m20 26c1.6568542 0 3-1.3431458 3-3s-1.3431458-3-3-3-3 1.3431458-3 3 1.3431458 3 3 3zm0-4c.5522847 0 1 .4477153 1 1s-.4477153 1-1 1-1-.4477153-1-1 .4477153-1 1-1z"/><path id="Shape" d="m47 38c1.1045695 0 2-.8954305 2-2v-2c0-1.1045695-.8954305-2-2-2h-34c-1.1045695 0-2 .8954305-2 2v2c0 1.1045695.8954305 2 2 2zm0-2h-28v-2h28zm-34-2h4v2h-4z"/><path id="Shape" d="m11 44h-2c-1.1045695 0-2 .8954305-2 2v8c0 1.1045695.8954305 2 2 2h2c1.1045695 0 2-.8954305 2-2v-8c0-1.1045695-.8954305-2-2-2zm-2 10v-8h2v8z"/><path id="Shape" d="m19 42h-2c-1.1045695 0-2 .8954305-2 2v10c0 1.1045695.8954305 2 2 2h2c1.1045695 0 2-.8954305 2-2v-10c0-1.1045695-.8954305-2-2-2zm-2 12v-10h2v10z"/><path id="Shape" d="m27 46h-2c-1.1045695 0-2 .8954305-2 2v6c0 1.1045695.8954305 2 2 2h2c1.1045695 0 2-.8954305 2-2v-6c0-1.1045695-.8954305-2-2-2zm-2 8v-6h2v6z"/><path id="Shape" d="m35 42h-2c-1.1045695 0-2 .8954305-2 2v10c0 1.1045695.8954305 2 2 2h2c1.1045695 0 2-.8954305 2-2v-10c0-1.1045695-.8954305-2-2-2zm-2 12v-10h2v10z"/><path id="Shape" d="m43 40h-2c-1.1045695 0-2 .8954305-2 2v12c0 1.1045695.8954305 2 2 2h2c1.1045695 0 2-.8954305 2-2v-12c0-1.1045695-.8954305-2-2-2zm-2 14v-12h2v12z"/><path id="Shape" d="m51 42h-2c-1.1045695 0-2 .8954305-2 2v10c0 1.1045695.8954305 2 2 2h2c1.1045695 0 2-.8954305 2-2v-10c0-1.1045695-.8954305-2-2-2zm-2 12v-10h2v10z"/></g></g></svg>